<svg id="Layer_1" data-name="Layer 1" xmlns="http://www.w3.org/2000/svg" viewBox="0 0 122.88 122.88"><defs><style>.cls-1{fill:#fffc00;fill-rule:evenodd;}.cls-2{fill:#fff;}</style></defs><title>snapchat-square-color</title><path class="cls-1" d="M25.2,0H97.68a25.27,25.27,0,0,1,25.2,25.2V97.68a25.27,25.27,0,0,1-25.2,25.2H25.2A25.27,25.27,0,0,1,0,97.68V25.2A25.27,25.27,0,0,1,25.2,0Z"/><path d="M81.52,49.44a35.69,35.69,0,0,1-.42,5.19l.5-.19a8.79,8.79,0,0,1,4.28-.84h0a4.37,4.37,0,0,1,1.53.39,4.25,4.25,0,0,1,1.86,1.56,4,4,0,0,1,.65,2.5,4.2,4.2,0,0,1-.38,1.49,4.58,4.58,0,0,1-1.66,1.8,9.82,9.82,0,0,1-2,1l-.1,0c-.68.24-1.39.44-2,.61s-1,.28-1.3.4l-.08,0c-.65.27-.83.61-.79.95a7.75,7.75,0,0,0,1.24,2.71h0A21.12,21.12,0,0,0,87.94,73a17.43,17.43,0,0,0,7,3.09h0a2.09,2.09,0,0,1,1.63,1.83c.22,2.44-1.31,4-3.81,5a28.5,28.5,0,0,1-5.38,1.41c-1.24,5-1.56,4.93-5.25,4.21-.41-.08-.91-.18-1.53-.26-4.54-.57-7.14,1.26-9.8,3.14l-.13.09a15.4,15.4,0,0,1-8.88,3.14,17.32,17.32,0,0,1-8.75-2.58L53,92c-.75-.43-1.5-.95-2.22-1.44a18.75,18.75,0,0,0-2.37-1.45l-.1,0a8,8,0,0,0-1.52-.41l-.53-.1h0a11.21,11.21,0,0,0-4.49.18,13.24,13.24,0,0,1-1.8.26c-2.48.14-3.92-.65-4.42-4.52-.82-.16-1.61-.33-2.35-.53a15.36,15.36,0,0,1-3.37-1.31c-3.32-1.82-4.09-3.26-3.19-4.9.62-1.14,1.8-1.47,3.38-1.92l.19-.06h0a17,17,0,0,0,6.27-3.54,15.55,15.55,0,0,0,4.16-5.49l0,0c.16-.4.31-.8.44-1.21a6.06,6.06,0,0,0,.21-.95.28.28,0,0,1,0-.09c.08-.67-1.17-1.13-2.37-1.57h0l-.12-.05-.11,0A14.35,14.35,0,0,1,35,60.85c-1.92-1.51-2.89-3.47-.68-5.81h0a4.52,4.52,0,0,1,1.27-.91h0A5.51,5.51,0,0,1,37,53.67h0a2,2,0,0,1,.77,0l1.85.4,2.22.49a39.26,39.26,0,0,1-.35-5.48c0-6.48,1.9-11.28,4.84-14.65a18.38,18.38,0,0,1,11.4-5.94,24.81,24.81,0,0,1,3.7-.25,26.32,26.32,0,0,1,4.89.48,17.66,17.66,0,0,1,11.53,7.35,23.16,23.16,0,0,1,3.63,13.36ZM78.76,56c2.79-13.93-2.64-25.59-17.3-25.69C51,30.23,41.4,37.09,44,55c.34,2.25-.75,2-2.42,1.59-1.41-.29-2.82-.61-4.21-.91a2.73,2.73,0,0,0-1.57.75c-2,2.15,2,3.8,3.57,4.37,2,.76,4.21,1.47,3.94,3.84a10.41,10.41,0,0,1-.8,2.78c-1.91,4.63-7,8.92-11.8,10.29-2.5.71-3.77,1,0,3.08a19.92,19.92,0,0,0,6.66,1.87c.39,7.39,3.17,2.64,9.21,3.85a11.71,11.71,0,0,1,2.45.64c1.55.67,3.12,2,4.9,3,5.41,3.12,10.27,3.32,15.54-.39,3-2.15,6-4.27,11.36-3.6,3.79.48,3.56,1.65,4.85-3.69,4.76-.84,9.06-1.77,8.82-4.39-6.24-1.33-10.21-4.59-13.51-9.92-1.31-2.1-3-5.18.5-6.65.89-.38,2.12-.6,3.51-1.09a4.92,4.92,0,0,0,2.6-1.77,2.14,2.14,0,0,0-1.92-3c-2.8-.2-4.12,1.63-5.82,1.07a3.61,3.61,0,0,1-1.2-.73Z"/><path class="cls-2" d="M78.76,56c2.79-13.93-2.64-25.59-17.3-25.69C51,30.23,41.4,37.09,44,55c.34,2.25-.75,2-2.42,1.59-1.41-.29-2.82-.61-4.21-.91a2.73,2.73,0,0,0-1.57.75c-2,2.15,2,3.8,3.57,4.37,2,.76,4.21,1.47,3.94,3.84a10.41,10.41,0,0,1-.8,2.78c-1.91,4.63-7,8.92-11.8,10.29-2.5.71-3.77,1,0,3.08a19.85,19.85,0,0,0,6.66,1.87c.39,7.39,3.17,2.64,9.21,3.85a11.71,11.71,0,0,1,2.45.64c1.55.67,3.12,2,4.9,3,5.41,3.12,10.27,3.32,15.54-.39,3-2.15,6-4.27,11.36-3.6,3.79.48,3.56,1.65,4.85-3.69,4.76-.84,9.06-1.77,8.82-4.39-6.24-1.33-10.21-4.59-13.51-9.92-1.31-2.1-3-5.18.5-6.65.89-.38,2.12-.6,3.51-1.09a4.92,4.92,0,0,0,2.6-1.77,2.14,2.14,0,0,0-1.92-3c-2.8-.2-4.12,1.63-5.82,1.07a3.61,3.61,0,0,1-1.2-.73Z"/></svg>